<svg width="80" height="80" viewBox="0 0 80 80" fill="none" xmlns="http://www.w3.org/2000/svg">
<g id="Group 36">
<g id="Group 34">
<circle id="Ellipse 744" cx="40" cy="40" r="38.5" fill="#14152B" stroke="#D2FF3A" stroke-width="3"/>
</g>
<g id="Group 35">
<path id="Vector 301 (Stroke)" fill-rule="evenodd" clip-rule="evenodd" d="M28.0597 23.0845V24.6765C28.0597 23.0845 28.0596 23.0845 28.0597 23.0845H41.393C44.4202 23.0845 48.4304 24.1909 51.7077 27.0001C55.0397 29.8561 57.5124 34.3866 57.5124 40.9949C57.5124 47.6176 55.0221 51.7633 51.5897 54.1861C48.2541 56.5407 44.2475 57.1143 41.393 57.1143H28.0601C28.06 57.1143 28.0597 57.1143 28.0597 55.5223L28.0601 57.1143H26.4677V23.0845H28.0597ZM29.6517 53.9302H41.393C43.9117 53.9302 47.1688 53.4094 49.7535 51.5848C52.2416 49.8286 54.3283 46.7106 54.3283 40.9949C54.3283 35.265 52.2239 31.6362 49.6355 29.4176C46.9925 27.1521 43.739 26.2686 41.393 26.2686H29.6517V53.9302Z" fill="#D2FF3A"/>
<path id="Line 1 (Stroke)" fill-rule="evenodd" clip-rule="evenodd" d="M61.2935 37.4131H21.0945V34.229H61.2935V37.4131Z" fill="#D2FF3A"/>
<path id="Line 2 (Stroke)" fill-rule="evenodd" clip-rule="evenodd" d="M61.2935 45.7712H21.0945V42.5872H61.2935V45.7712Z" fill="#D2FF3A"/>
</g>
</g>
</svg>
