<svg width="60" height="60" viewBox="0 0 60 60" fill="none" xmlns="http://www.w3.org/2000/svg">
<g id="Group 41">
<g id="Group 39">
<circle id="Ellipse 745" cx="30" cy="30" r="28.5" fill="#14152B" stroke="#D2FF3A" stroke-width="3"/>
</g>
<path id="Vector 289" d="M23.7782 35.3996L27.7078 32.0481C28.2317 31.8247 28.3627 32.2653 28.3627 32.5136C27.1464 34.3445 24.6202 38.1181 24.246 38.565C23.7782 39.1236 23.4039 39.4029 22.0005 39.4029C20.8777 39.4029 20.597 38.2857 20.597 37.7271V22.3658C20.6906 21.7762 21.1771 20.5969 22.3747 20.5969C23.5723 20.5969 24.1212 20.9073 24.246 21.0624C28.082 25.6553 35.8102 34.9155 36.0348 35.2134C36.2593 35.5114 36.4402 35.3376 36.5026 35.2134V24.8795C36.5026 24.656 36.2531 24.7243 36.1283 24.7864L32.573 27.8586C32.417 27.9517 32.049 28.1007 31.8245 27.9517C31.5999 27.8028 31.7309 27.4552 31.8245 27.3C33.0096 25.5312 35.4173 21.9562 35.567 21.8072C35.7541 21.621 36.2219 20.5969 37.7189 20.69C38.9165 20.7645 39.3406 21.7762 39.403 22.2727V37.5409C39.403 38.6581 38.6545 39.4029 37.3447 39.4029C36.2968 39.4029 35.4734 38.7202 35.1927 38.3788L23.8717 24.7864C23.8717 24.7554 23.8343 24.6933 23.6846 24.6933C23.5349 24.6933 23.4975 24.8795 23.4975 24.9726V35.0273C23.4663 35.1203 23.4226 35.3252 23.4975 35.3996C23.5723 35.4741 23.7158 35.4307 23.7782 35.3996Z" fill="#D2FF3A"/>
<path id="Ellipse 750 (Stroke)" fill-rule="evenodd" clip-rule="evenodd" d="M21.6207 12.4753C17.6185 14.4207 14.384 17.7031 12.4996 21.7394L9.25379 20.2241C11.4862 15.4423 15.3142 11.5579 20.0547 9.25366L21.6207 12.4753ZM47.6832 21.7394C45.9961 18.1256 43.2264 15.1156 39.7916 13.1287L41.5852 10.028C45.6516 12.3802 48.9299 15.942 50.929 20.2241L47.6832 21.7394ZM12.4996 38.1345C14.384 42.1709 17.6185 45.4532 21.6207 47.3986L20.0547 50.6203C15.3142 48.316 11.4862 44.4316 9.25378 39.6499L12.4996 38.1345ZM39.7916 46.7453C43.2264 44.7583 45.9961 41.7483 47.6832 38.1345L50.929 39.6499C48.9299 43.9319 45.6516 47.4937 41.5852 49.846L39.7916 46.7453Z" fill="#D2FF3A"/>
</g>
</svg>
