<svg width="60" height="60" viewBox="0 0 60 60" fill="none" xmlns="http://www.w3.org/2000/svg">
<g id="Group 37">
<circle id="Ellipse 745" cx="30" cy="30" r="28.5" fill="#14152B" stroke="#D2FF3A" stroke-width="3"/>
<path id="Union" fill-rule="evenodd" clip-rule="evenodd" d="M33.4014 21.5221C33.0149 21.7651 33.033 22.3344 33.4343 22.5523L42.1032 27.2582C42.501 27.4742 42.985 27.1862 42.985 26.7335V20.9003C42.985 18.5522 40.3993 17.1234 38.4114 18.373L33.4014 21.5221ZM17.0149 21.6268C17.0149 18.8863 19.967 17.1608 22.3548 18.5057L41.3128 29.1832C42.3459 29.765 42.985 30.8586 42.985 32.0442V38.474C42.985 41.2145 40.0329 42.9399 37.6451 41.5951L18.6871 30.9176C17.6541 30.3357 17.0149 29.2422 17.0149 28.0566V21.6268ZM26.5656 37.5485C26.9669 37.7663 26.9851 38.3356 26.5985 38.5786L21.5885 41.7278C19.6006 42.9773 17.0149 41.5485 17.0149 39.2005V33.3672C17.0149 32.9146 17.4989 32.6266 17.8967 32.8425L26.5656 37.5485Z" fill="#D2FF3A"/>
</g>
</svg>
