<svg width="326" height="83" viewBox="0 0 326 83" fill="none" xmlns="http://www.w3.org/2000/svg">
<path d="M162.818 81.6982C207.531 81.6982 248.028 77.2187 277.361 69.9679C292.023 66.3434 303.925 62.0198 312.172 57.1997C320.385 52.4002 325.136 47.0098 325.136 41.1982C325.136 35.3867 320.385 29.9963 312.172 25.1968C303.925 20.3767 292.023 16.053 277.361 12.4286C248.028 5.17775 207.531 0.698242 162.818 0.698242C118.105 0.698242 77.6084 5.17775 48.2755 12.4286C33.6129 16.053 21.7118 20.3767 13.4642 25.1968C5.25172 29.9963 0.5 35.3867 0.5 41.1982C0.5 47.0098 5.25172 52.4002 13.4642 57.1997C21.7118 62.0198 33.6129 66.3434 48.2755 69.9679C77.6084 77.2187 118.105 81.6982 162.818 81.6982Z" fill="#D2FF3A" stroke="#D2FF3A"/>
<path d="M162.818 81.6982C207.531 81.6982 248.028 77.2187 277.361 69.9679C292.023 66.3434 303.925 62.0198 312.172 57.1997C320.385 52.4002 325.136 47.0098 325.136 41.1982C325.136 35.3867 320.385 29.9963 312.172 25.1968C303.925 20.3767 292.023 16.053 277.361 12.4286C248.028 5.17775 207.531 0.698242 162.818 0.698242C118.105 0.698242 77.6084 5.17775 48.2755 12.4286C33.6129 16.053 21.7118 20.3767 13.4642 25.1968C5.25172 29.9963 0.5 35.3867 0.5 41.1982C0.5 47.0098 5.25172 52.4002 13.4642 57.1997C21.7118 62.0198 33.6129 66.3434 48.2755 69.9679C77.6084 77.2187 118.105 81.6982 162.818 81.6982Z" fill="#D2FF3A" stroke="#D2FF3A"/>
<path fill-rule="evenodd" clip-rule="evenodd" d="M10.9285 54.9634C33.6616 39.6497 92.9642 28.7288 162.541 28.7288C232.118 28.7288 291.421 39.6497 314.154 54.9634C291.421 70.2772 232.118 81.198 162.541 81.198C92.9642 81.198 33.6616 70.2772 10.9285 54.9634Z" fill="#14152B"/>
</svg>
