<svg width="80" height="80" viewBox="0 0 80 80" fill="none" xmlns="http://www.w3.org/2000/svg">
<g id="Group 30">
<circle id="Ellipse 745" cx="40" cy="40" r="38.5" fill="#14152B" stroke="#D2FF3A" stroke-width="3"/>
<path id="Vector 289" d="M26.6668 51.542L35.025 44.3778C36.1395 43.9002 36.4181 44.8421 36.418 45.3728C33.831 49.2866 28.4578 57.3529 27.6618 58.3081C26.6668 59.5021 25.8708 60.0992 22.8857 60.0992C20.4976 60.0992 19.9006 57.7111 19.9006 56.5171V23.6812C20.0996 22.4209 21.1345 19.9001 23.6817 19.9001C26.229 19.9001 27.3965 20.5635 27.6618 20.8952C35.821 30.7128 52.2588 50.5071 52.7365 51.1439C53.2141 51.7808 53.5988 51.4093 53.7315 51.1439V29.0544C53.7315 28.5768 53.2008 28.7227 52.9355 28.8554L45.3733 35.4225C45.0416 35.6215 44.2588 35.94 43.7812 35.6215C43.3036 35.3031 43.5822 34.5602 43.7812 34.2285C46.302 30.4474 51.423 22.8056 51.7414 22.4872C52.1394 22.0892 53.1345 19.9002 56.3185 20.0992C58.8658 20.2584 59.768 22.4209 59.9006 23.4823V56.1191C59.9006 58.5071 58.3086 60.0992 55.5225 60.0992C53.2937 60.0992 51.5424 58.6398 50.9454 57.9101L26.8658 28.8554C26.8658 28.7891 26.7862 28.6564 26.4678 28.6564C26.1494 28.6564 26.0698 29.0544 26.0698 29.2534V50.746C26.0035 50.945 25.9106 51.3828 26.0698 51.542C26.229 51.7012 26.5341 51.6083 26.6668 51.542Z" fill="#D2FF3A"/>
</g>
</svg>
