<svg width="80" height="80" viewBox="0 0 80 80" fill="none" xmlns="http://www.w3.org/2000/svg">
<g id="Group 29">
<circle id="Ellipse 744" cx="40" cy="40" r="38.5" fill="#14152B" stroke="#D2FF3A" stroke-width="3"/>
<path id="Union" fill-rule="evenodd" clip-rule="evenodd" d="M35.019 16.2755C35.019 15.8214 34.651 15.4534 34.1969 15.4534L33.9361 15.5176C22.9076 18.2343 14.7263 28.1883 14.7263 40.0586C14.7263 51.3414 22.1181 60.8919 32.3175 64.1428C32.5348 64.2121 32.7644 64.2474 32.9926 64.2474C33.4963 64.2474 33.9121 63.839 33.9121 63.3353V61.2568C33.9121 60.3981 33.3603 59.6437 32.5666 59.3162C24.9646 56.1789 19.1538 48.7354 19.1538 40.0586C19.1538 30.9056 25.3023 23.126 33.5373 20.3248C34.3997 20.0314 35.019 19.245 35.019 18.3341V16.2755ZM45.803 15.4534C45.3489 15.4534 44.9809 15.8214 44.9809 16.2755V18.3341C44.9809 19.245 45.6002 20.0314 46.4626 20.3248C54.6976 23.126 60.8461 30.9056 60.8461 40.0586C60.8461 48.7349 55.2007 56.1779 47.6176 59.3156C46.8242 59.6438 46.2722 60.3981 46.2722 61.2568V63.7622C46.2722 64.0241 46.4949 64.2309 46.7561 64.2115C47.3715 64.1659 47.9816 64.0534 48.5622 63.8443C58.3042 60.3367 65.2736 51.0143 65.2736 40.0586C65.2736 28.1883 57.0923 18.2343 46.0638 15.5176L45.803 15.4534ZM37.9707 25.4849C37.9707 24.2623 38.9618 23.2712 40.1844 23.2712C41.4071 23.2712 42.3982 24.2623 42.3982 25.4849V26.9608C42.3982 27.0812 42.3886 27.1994 42.37 27.3147C44.2527 27.6504 45.7071 28.4628 46.7564 29.554C47.5198 30.3479 48.0186 31.4474 48.3154 32.4779C48.6297 33.5695 47.723 34.5244 46.5871 34.5244H46.1663C45.0929 34.5244 44.3192 33.5626 43.6515 32.7221C43.6239 32.6873 43.5951 32.6541 43.565 32.6229C43.1122 32.1519 42.2102 31.5727 40.3689 31.5727C37.7077 31.5727 36.7318 32.2013 36.3607 32.5989C35.9739 33.0134 35.7569 33.6873 35.7569 34.8933C35.7569 35.4327 35.9438 35.7816 36.475 36.1646C37.1187 36.6286 38.1206 37.0082 39.4635 37.3663C39.8834 37.4783 40.3543 37.5659 40.9471 37.6761L40.9472 37.6761L40.9475 37.6762L40.9479 37.6762L40.9486 37.6764C41.1935 37.7219 41.4592 37.7713 41.7507 37.8279C42.6639 38.0053 43.7506 38.2418 44.7821 38.6375C44.8963 38.6813 45.0132 38.7249 45.132 38.7693C46.0844 39.1246 47.1569 39.5249 47.9326 40.4277C48.8468 41.4919 49.4084 43.0735 49.4084 44.6707C49.4084 47.3675 48.3616 49.6135 46.5884 51.1433C45.3757 52.1896 43.8957 52.7625 42.3375 53.0086C42.3772 53.1745 42.3982 53.3477 42.3982 53.5258V54.6326C42.3982 55.8553 41.4071 56.8464 40.1844 56.8464C38.9618 56.8464 37.9707 55.8553 37.9707 54.6326V53.5258C37.9707 53.3103 38.0015 53.1021 38.0588 52.9052C34.8231 52.1986 31.8715 50.0285 30.912 46.7116C30.5976 45.6245 31.5301 44.6707 32.6617 44.6707H33.016C34.0471 44.6707 34.8619 45.5027 35.3973 46.3839C36.2789 47.8351 38.0932 48.7293 40.3689 48.7293C41.9919 48.7293 43.0605 48.3395 43.6962 47.791L43.711 47.7783C44.287 47.2815 44.9794 46.6843 44.7964 44.8552C44.7226 44.1173 44.6271 43.7462 44.4518 43.5421C44.2346 43.2893 43.8498 43.0219 43.1965 42.7713C42.5447 42.5213 41.775 42.3428 40.9068 42.1743C40.7173 42.1375 40.5146 42.0998 40.3048 42.0608L40.3035 42.0606L40.3016 42.0602L40.3011 42.0601L40.301 42.0601C39.6446 41.9382 38.9203 41.8037 38.3227 41.6443C36.8984 41.2645 35.2253 40.7217 33.8858 39.756C32.4339 38.7093 31.3294 37.1212 31.3294 34.8933C31.3294 33.3322 31.5737 31.2389 33.1239 29.578C34.2812 28.338 35.9145 27.602 37.9969 27.3024C37.9796 27.191 37.9707 27.0769 37.9707 26.9608V25.4849Z" fill="#D2FF3A"/>
</g>
</svg>
