<svg width="80" height="80" viewBox="0 0 80 80" fill="none" xmlns="http://www.w3.org/2000/svg">
<g id="Group 28">
<circle id="Ellipse 743" cx="40" cy="40" r="38.5" fill="#14152B" stroke="#D2FF3A" stroke-width="3"/>
<path id="Union" fill-rule="evenodd" clip-rule="evenodd" d="M56.5174 20.2986H23.4826V29.4528H35.8209V33.1412C25.3983 33.6786 17.5125 36.1887 17.5125 39.2041C17.5125 42.2194 25.3983 44.7295 35.8209 45.2669V60.0995H44.1791V45.2669C54.6017 44.7295 62.4876 42.2194 62.4876 39.2041C62.4876 36.1887 54.6017 33.6786 44.1791 33.1412V29.4528H56.5174V20.2986ZM35.8209 34.3318V39.8009C35.8209 39.8009 37.0149 40.1989 39.801 40.1989C42.5871 40.1989 44.1791 39.8009 44.1791 39.8009V34.3318C52.8311 34.7649 59.3035 36.5145 59.3035 38.607C59.3035 41.025 50.6611 42.9851 40 42.9851C29.339 42.9851 20.6966 41.025 20.6966 38.607C20.6966 36.5145 27.169 34.7649 35.8209 34.3318Z" fill="#D2FF3A"/>
</g>
</svg>
